<svg width="33" height="20" viewBox="0 0 33 20" fill="none" xmlns="http://www.w3.org/2000/svg">
<path d="M0.5625 11.7188C0.5625 11.2961 0.730413 10.8907 1.0293 10.5918C1.32818 10.2929 1.73356 10.125 2.15625 10.125H30.8438C31.2664 10.125 31.6718 10.2929 31.9707 10.5918C32.2696 10.8907 32.4375 11.2961 32.4375 11.7188C32.4375 12.1414 32.2696 12.5468 31.9707 12.8457C31.6718 13.1446 31.2664 13.3125 30.8438 13.3125H2.15625C1.73356 13.3125 1.32818 13.1446 1.0293 12.8457C0.730413 12.5468 0.5625 12.1414 0.5625 11.7188ZM0.5625 18.0938C0.5625 17.6711 0.730413 17.2657 1.0293 16.9668C1.32818 16.6679 1.73356 16.5 2.15625 16.5H21.2812C21.7039 16.5 22.1093 16.6679 22.4082 16.9668C22.7071 17.2657 22.875 17.6711 22.875 18.0938C22.875 18.5164 22.7071 18.9218 22.4082 19.2207C22.1093 19.5196 21.7039 19.6875 21.2812 19.6875H2.15625C1.73356 19.6875 1.32818 19.5196 1.0293 19.2207C0.730413 18.9218 0.5625 18.5164 0.5625 18.0938ZM0.5625 2.15625C0.5625 1.73356 0.730413 1.32818 1.0293 1.0293C1.32818 0.730413 1.73356 0.5625 2.15625 0.5625H30.8438C31.2664 0.5625 31.6718 0.730413 31.9707 1.0293C32.2696 1.32818 32.4375 1.73356 32.4375 2.15625V5.34375C32.4375 5.76644 32.2696 6.17181 31.9707 6.4707C31.6718 6.76959 31.2664 6.9375 30.8438 6.9375H2.15625C1.73356 6.9375 1.32818 6.76959 1.0293 6.4707C0.730413 6.17181 0.5625 5.76644 0.5625 5.34375V2.15625Z" fill="#9C9C9C"/>
</svg>
