<svg width="8" height="12" viewBox="0 0 8 12" fill="none" xmlns="http://www.w3.org/2000/svg">
<path d="M0.539964 0.260014C0.460141 0.338225 0.396725 0.431577 0.353433 0.534604C0.310141 0.637631 0.287842 0.748261 0.287842 0.860014C0.287842 0.971767 0.310141 1.0824 0.353433 1.18542C0.396725 1.28845 0.460141 1.3818 0.539964 1.46001L5.25496 6.00001L0.559964 10.54C0.412657 10.6995 0.331983 10.9094 0.334493 11.1265C0.337003 11.3436 0.422507 11.5515 0.573463 11.7076C0.724418 11.8637 0.929379 11.9561 1.14629 11.9658C1.3632 11.9756 1.57562 11.9019 1.73996 11.76L7.69997 6.00001L1.73996 0.235014C1.65977 0.157412 1.565 0.0964641 1.46112 0.0556872C1.35725 0.0149103 1.24632 -0.00488761 1.13475 -0.00256325C1.02319 -0.000238901 0.913182 0.0241615 0.811094 0.0692293C0.709006 0.114297 0.616856 0.17914 0.539964 0.260014Z" fill="#BCBCBC"/>
</svg>
